# xmcd
#
# Track frame offsets:
#	187
#	9332
#	21750
#	55757
#	77282
#	91587
#	119862
#	144035
#	164170
#	189247
#	199380
#	212470
#	233025
#	251537
#	272605
#	290697
#
# Disc length: 4237
#
# Revision: 1
# Processed by: cddbd v1.5.1PL0 Copyright (c) Steve Scherf et al.
# Submitted via: CDex 1.50
# Normalized: r0:DSETVAR1,TDELIM( - )
#
DISCID=d2108b10
DTITLE=Various Artist - Twilight Jazz
DYEAR=1997
DGENRE=Jazz
TTITLE0=Astrud Gilberto - Manha De Carnaval
TTITLE1=Kenny Burrell - As Long As I Live
TTITLE2=Oscar Oeterson and Milt Jackson - On Green Dolphin Street
TTITLE3=Stan Getz - O Grande Amor
TTITLE4=Wes Montgomery - Winds Of Barcelona
TTITLE5=Bill Evans and Jeremy Steig - Autumn Leaves
TTITLE6=Bill Evans - Here's That Rainy Day
TTITLE7=Lalo Schifrin - Old Laces
TTITLE8=George Benson - What's New
TTITLE9=Wes Montgomery - The Shadow Of Your Smile
TTITLE10=Wynton Kelly - It's All Right
TTITLE11=Wynton Kelly - On The Trail from "The Grand Canyon Suite"
TTITLE12=Kenny Burrell - Angel Eyes
TTITLE13=Kenny Burrell - Last Night When We Were Young
TTITLE14=Oscar Peterson - The Girl From Ipanema
TTITLE15=Wes Montgomery - Sun Down
EXTD=YEAR: 1997
EXTT0=
EXTT1=
EXTT2=
EXTT3=
EXTT4=
EXTT5=
EXTT6=
EXTT7=
EXTT8=
EXTT9=
EXTT10=
EXTT11=
EXTT12=
EXTT13=
EXTT14=
EXTT15=
PLAYORDER=
